<svg width="204" height="66" viewBox="0 0 204 66" fill="none" xmlns="http://www.w3.org/2000/svg">
<path d="M24.8343 25.072C30.1143 25.792 33.8823 27.328 36.1383 29.68C38.3943 31.984 39.5223 34.768 39.5223 38.032C39.5223 40.768 38.8263 43.192 37.4343 45.304C36.0423 47.416 34.0503 49.072 31.4583 50.272C28.8663 51.424 25.7943 52 22.2423 52C20.9463 52 19.8423 51.976 18.9303 51.928C15.8583 51.832 12.8343 51.784 9.85825 51.784C5.92225 51.784 2.94625 51.856 0.93025 52V50.56C2.65825 50.464 3.90625 50.272 4.67425 49.984C5.49025 49.696 6.04225 49.144 6.33025 48.328C6.61825 47.512 6.76225 46.192 6.76225 44.368V8.656C6.76225 6.832 6.61825 5.512 6.33025 4.696C6.04225 3.88 5.49025 3.328 4.67425 3.04C3.90625 2.752 2.65825 2.56 0.93025 2.464V1.024C2.94625 1.168 5.87425 1.24 9.71425 1.24L17.4903 1.168C18.4023 1.12 19.4343 1.096 20.5863 1.096C25.4823 1.096 29.2263 2.128 31.8183 4.192C34.4583 6.256 35.7783 8.992 35.7783 12.4C35.7783 15.184 34.8903 17.68 33.1143 19.888C31.3863 22.096 28.6263 23.776 24.8343 24.928V25.072ZM18.7863 2.464C17.2983 2.464 16.1703 2.632 15.4023 2.968C14.6823 3.304 14.1783 3.904 13.8903 4.768C13.6023 5.632 13.4583 6.928 13.4583 8.656V24.928H18.2823C22.2183 24.928 24.9543 23.872 26.4903 21.76C28.0743 19.6 28.8663 16.744 28.8663 13.192C28.8663 9.592 28.0743 6.904 26.4903 5.128C24.9063 3.352 22.3383 2.464 18.7863 2.464ZM18.8583 50.344C27.8343 50.344 32.3223 46.144 32.3223 37.744C32.3223 33.952 31.2903 31.072 29.2263 29.104C27.2103 27.136 23.9703 26.152 19.5063 26.152H13.4583V44.368C13.4583 46.096 13.6023 47.368 13.8903 48.184C14.1783 49 14.6823 49.576 15.4023 49.912C16.1703 50.2 17.3223 50.344 18.8583 50.344ZM54.5016 52.504C51.4776 52.504 49.2216 51.76 47.7336 50.272C46.2936 48.736 45.5736 46.624 45.5736 43.936C45.5736 41.776 46.1496 40 47.3016 38.608C48.5016 37.216 49.8936 36.112 51.4776 35.296C53.1096 34.48 55.2456 33.616 57.8856 32.704C60.5736 31.792 62.5656 30.952 63.8616 30.184C65.1576 29.416 65.8056 28.384 65.8056 27.088V22.624C65.8056 19.84 65.2056 17.944 64.0056 16.936C62.8536 15.88 61.2216 15.352 59.1096 15.352C55.7496 15.352 53.3736 16.216 51.9816 17.944C52.9416 18.184 53.7336 18.688 54.3576 19.456C55.0296 20.224 55.3656 21.184 55.3656 22.336C55.3656 23.536 54.9816 24.496 54.2136 25.216C53.4456 25.888 52.4616 26.224 51.2616 26.224C49.9176 26.224 48.9096 25.816 48.2376 25C47.5656 24.136 47.2296 23.104 47.2296 21.904C47.2296 20.752 47.4936 19.792 48.0216 19.024C48.5976 18.256 49.4376 17.488 50.5416 16.72C51.6936 15.904 53.1576 15.232 54.9336 14.704C56.7096 14.176 58.6536 13.912 60.7656 13.912C64.5096 13.912 67.3416 14.8 69.2616 16.576C70.4616 17.68 71.2536 19.024 71.6376 20.608C72.0696 22.144 72.2856 24.184 72.2856 26.728V46.744C72.2856 47.944 72.4536 48.808 72.7896 49.336C73.1256 49.864 73.7016 50.128 74.5176 50.128C75.0936 50.128 75.6216 50.008 76.1016 49.768C76.6296 49.48 77.1816 49.096 77.7576 48.616L78.5496 49.84C77.3016 50.8 76.2216 51.496 75.3096 51.928C74.4456 52.312 73.3416 52.504 71.9976 52.504C69.6936 52.504 68.0856 51.928 67.1736 50.776C66.2616 49.624 65.8056 48.064 65.8056 46.096C64.3656 48.496 62.7096 50.176 60.8376 51.136C58.9656 52.048 56.8536 52.504 54.5016 52.504ZM57.6696 49.624C60.8376 49.624 63.5496 47.8 65.8056 44.152V30.04C65.3736 30.712 64.7736 31.264 64.0056 31.696C63.2376 32.128 62.0616 32.704 60.4776 33.424C58.6536 34.192 57.1656 34.936 56.0136 35.656C54.9096 36.328 53.9496 37.264 53.1336 38.464C52.3176 39.664 51.9096 41.2 51.9096 43.072C51.9096 45.232 52.4376 46.864 53.4936 47.968C54.5496 49.072 55.9416 49.624 57.6696 49.624ZM103.105 13.912C105.025 13.912 106.585 14.464 107.785 15.568C109.033 16.672 109.657 18.016 109.657 19.6C109.657 20.848 109.273 21.928 108.505 22.84C107.785 23.704 106.801 24.136 105.553 24.136C104.497 24.136 103.585 23.8 102.817 23.128C102.097 22.456 101.737 21.544 101.737 20.392C101.737 18.808 102.553 17.512 104.185 16.504C103.849 16.024 103.345 15.784 102.673 15.784C100.801 15.784 99.097 16.528 97.561 18.016C96.025 19.456 94.825 21.232 93.961 23.344C93.097 25.456 92.665 27.448 92.665 29.32V44.584C92.665 46.792 93.289 48.328 94.537 49.192C95.833 50.056 97.753 50.488 100.297 50.488V52L98.569 51.928C93.673 51.784 90.553 51.712 89.209 51.712C87.961 51.712 85.129 51.808 80.713 52V50.488C82.729 50.488 84.145 50.128 84.961 49.408C85.777 48.64 86.185 47.272 86.185 45.304V22.768C86.185 20.56 85.777 18.952 84.961 17.944C84.145 16.936 82.729 16.432 80.713 16.432V14.92C82.249 15.064 83.737 15.136 85.177 15.136C88.201 15.136 90.697 14.8 92.665 14.128V23.128C93.529 20.728 94.897 18.592 96.769 16.72C98.689 14.848 100.801 13.912 103.105 13.912ZM129.009 13.912C133.905 13.912 137.841 15.544 140.817 18.808C143.841 22.024 145.353 26.92 145.353 33.496C145.353 40.072 143.841 44.968 140.817 48.184C137.841 51.4 133.905 53.008 129.009 53.008C124.113 53.008 120.153 51.4 117.129 48.184C114.153 44.968 112.665 40.072 112.665 33.496C112.665 26.92 114.153 22.024 117.129 18.808C120.153 15.544 124.113 13.912 129.009 13.912ZM129.009 15.352C126.129 15.352 123.849 16.84 122.169 19.816C120.489 22.744 119.649 27.304 119.649 33.496C119.649 39.688 120.489 44.248 122.169 47.176C123.849 50.104 126.129 51.568 129.009 51.568C131.889 51.568 134.169 50.104 135.849 47.176C137.529 44.248 138.369 39.688 138.369 33.496C138.369 27.304 137.529 22.744 135.849 19.816C134.169 16.84 131.889 15.352 129.009 15.352ZM203.663 54.088C202.607 57.736 201.095 60.472 199.127 62.296C196.775 64.456 193.535 65.536 189.407 65.536C187.199 65.536 185.039 65.2 182.927 64.528C180.815 63.856 178.151 62.8 174.935 61.36C171.383 59.824 168.479 58.672 166.223 57.904L164.495 57.4C162.431 58.12 160.439 58.48 158.519 58.48C156.311 58.48 155.207 58 155.207 57.04C155.207 56.032 156.503 55.528 159.095 55.528C160.775 55.528 162.575 55.72 164.495 56.104C166.031 55.672 167.807 55 169.823 54.088C171.071 53.512 172.007 53.104 172.631 52.864C168.551 52.48 164.999 51.208 161.975 49.048C158.999 46.888 156.671 43.936 154.991 40.192C153.359 36.4 152.543 31.984 152.543 26.944C152.543 21.664 153.503 16.984 155.423 12.904C157.391 8.824 160.103 5.656 163.559 3.4C167.063 1.144 171.023 0.0159955 175.439 0.0159955C179.999 0.0159955 183.983 1.048 187.391 3.112C190.847 5.176 193.511 8.176 195.383 12.112C197.303 16 198.263 20.656 198.263 26.08C198.263 31.072 197.399 35.536 195.671 39.472C193.943 43.36 191.519 46.48 188.399 48.832C185.279 51.136 181.703 52.48 177.671 52.864V52.936C176.519 53.08 175.511 53.272 174.647 53.512C173.831 53.8 172.727 54.232 171.335 54.808C169.607 55.576 168.167 56.128 167.015 56.464C172.343 57.52 176.855 58.36 180.551 58.984C184.295 59.608 187.391 59.92 189.839 59.92C193.247 59.92 195.935 59.416 197.903 58.408C199.919 57.448 201.479 55.864 202.583 53.656L203.663 54.088ZM159.743 26.656C159.743 31.648 160.439 36.04 161.831 39.832C163.271 43.624 165.191 46.552 167.591 48.616C169.991 50.68 172.679 51.712 175.655 51.712C178.727 51.712 181.415 50.656 183.719 48.544C186.071 46.384 187.871 43.384 189.119 39.544C190.415 35.704 191.063 31.312 191.063 26.368C191.063 21.376 190.343 16.984 188.903 13.192C187.511 9.4 185.615 6.472 183.215 4.408C180.815 2.344 178.127 1.312 175.151 1.312C172.079 1.312 169.367 2.392 167.015 4.552C164.711 6.664 162.911 9.64 161.615 13.48C160.367 17.32 159.743 21.712 159.743 26.656Z" fill="black"/>
</svg>
